<svg width="512" height="512" viewBox="0 0 512 512" fill="none" xmlns="http://www.w3.org/2000/svg">
  <rect width="512" height="512" fill="#050505"/>
  <rect x="80" y="80" width="352" height="352" rx="40" stroke="white" stroke-width="24"/>
  <rect x="110" y="80" width="30" height="30" fill="#050505"/>
  <rect x="180" y="80" width="30" height="30" fill="#050505"/>
  <rect x="250" y="80" width="30" height="30" fill="#050505"/>
  <rect x="320" y="80" width="30" height="30" fill="#050505"/>
  <rect x="370" y="80" width="30" height="30" fill="#050505"/>
  <rect x="110" y="402" width="30" height="30" fill="#050505"/>
  <rect x="180" y="402" width="30" height="30" fill="#050505"/>
  <rect x="250" y="402" width="30" height="30" fill="#050505"/>
  <rect x="320" y="402" width="30" height="30" fill="#050505"/>
  <rect x="370" y="402" width="30" height="30" fill="#050505"/>
  <path d="M310 190C295 170 270 160 245 160C195 160 160 200 160 256C160 312 195 352 245 352C270 352 295 342 310 322" stroke="white" stroke-width="32" stroke-linecap="round"/>
  <path d="M245 230L285 256L245 282V230Z" fill="#EAB308"/>
</svg>